<?xml version="1.0" encoding="UTF-8" standalone="no"?>
<svg
   xmlns:dc="http://purl.org/dc/elements/1.1/"
   xmlns:cc="http://creativecommons.org/ns#"
   xmlns:rdf="http://www.w3.org/1999/02/22-rdf-syntax-ns#"
   xmlns:svg="http://www.w3.org/2000/svg"
   xmlns="http://www.w3.org/2000/svg"
   xmlns:sodipodi="http://sodipodi.sourceforge.net/DTD/sodipodi-0.dtd"
   xmlns:inkscape="http://www.inkscape.org/namespaces/inkscape"
   viewBox="0 0 664.72491 172.49001"
   version="1.1"
   id="svg83"
   sodipodi:docname="logo.svg"
   width="664.72491"
   height="172.49001"
   inkscape:version="0.92.4 (5da689c313, 2019-01-14)">
  <metadata
     id="metadata87">
    <rdf:RDF>
      <cc:Work
         rdf:about="">
        <dc:format>image/svg+xml</dc:format>
        <dc:type
           rdf:resource="http://purl.org/dc/dcmitype/StillImage" />
        <dc:title></dc:title>
      </cc:Work>
    </rdf:RDF>
  </metadata>
  <sodipodi:namedview
     pagecolor="#ffffff"
     bordercolor="#666666"
     borderopacity="1"
     objecttolerance="10"
     gridtolerance="10"
     guidetolerance="10"
     inkscape:pageopacity="0"
     inkscape:pageshadow="2"
     inkscape:window-width="1920"
     inkscape:window-height="1026"
     id="namedview85"
     showgrid="false"
     fit-margin-top="0"
     fit-margin-left="0"
     fit-margin-right="0"
     fit-margin-bottom="0"
     inkscape:zoom="0.43792633"
     inkscape:cx="348.06698"
     inkscape:cy="86.209999"
     inkscape:window-x="0"
     inkscape:window-y="31"
     inkscape:window-maximized="1"
     inkscape:current-layer="svg83" />
  <defs
     id="defs4">
    <style
       id="style2">.cls-1{fill:#93ef33;}.cls-2{fill:#06bee1;}.cls-3{fill:#fff;}</style>
  </defs>
  <g
     id="Isolation_Mode"
     data-name="Isolation Mode"
     transform="translate(-23.000001,-37.719998)">
    <rect
       class="cls-1"
       x="27.43"
       y="87.480003"
       width="112.56"
       height="13.03"
       rx="6.5100002"
       transform="rotate(90,83.71,94)"
       id="rect6"
       style="fill:#93ef33" />
    <rect
       class="cls-1"
       x="18.309999"
       y="132.56"
       width="76.599998"
       height="13.03"
       rx="6.5100002"
       transform="rotate(90,56.615,139.075)"
       id="rect8"
       style="fill:#93ef33" />
    <rect
       class="cls-1"
       x="-2.01"
       y="156.53"
       width="63.060001"
       height="13.03"
       rx="6.5100002"
       transform="rotate(90,29.515,163.045)"
       id="rect10"
       style="fill:#93ef33" />
    <rect
       class="cls-2"
       x="60.779999"
       y="180.75999"
       width="45.860001"
       height="13.03"
       rx="6.5100002"
       transform="rotate(90,83.71,187.28)"
       id="rect12"
       style="fill:#06bee1" />
    <rect
       class="cls-1"
       x="53.759998"
       y="87.480003"
       width="112.56"
       height="13.03"
       rx="6.5100002"
       transform="rotate(90,110.04,94)"
       id="rect14"
       style="fill:#93ef33" />
    <rect
       class="cls-1"
       x="130.62"
       y="100.77"
       width="13.03"
       height="76.599998"
       rx="6.5100002"
       transform="rotate(-180,137.135,139.075)"
       id="rect16"
       style="fill:#93ef33" />
    <rect
       class="cls-1"
       x="157.72"
       y="131.52"
       width="13.03"
       height="63.060001"
       rx="6.5100002"
       transform="rotate(180,164.235,163.045)"
       id="rect18"
       style="fill:#93ef33" />
    <rect
       class="cls-2"
       x="103.52"
       y="164.35001"
       width="13.03"
       height="45.860001"
       rx="6.5100002"
       transform="rotate(180,110.04,187.275)"
       id="rect20"
       style="fill:#06bee1" />
    <path
       class="cls-3"
       d="m 234.32,84.49 a 32.12,32.12 0 0 1 8.15,-3.78 78.13,78.13 0 0 1 10.16,-2.52 51.65,51.65 0 0 1 8.57,-0.92 37,37 0 0 1 16.55,3.52 27.61,27.61 0 0 1 11.17,9.75 25.63,25.63 0 0 1 4,14.28 v 56.11 H 282.88 L 281.2,152.7 A 37.41,37.41 0 0 1 270.53,159.75 31.65,31.65 0 0 1 257,163 q -14.28,0 -21.17,-7.23 a 25,25 0 0 1 -6.88,-18 q 0,-11.92 8.23,-18.4 8.23,-6.48 21.33,-6.47 h 21 v -4.53 q 0,-8.4 -4.11,-13.95 -4.11,-5.55 -13.86,-5.54 a 42.05,42.05 0 0 0 -13.36,1.85 q -5.46,1.85 -10,3.69 z m 8.68,60.06 a 13.36,13.36 0 0 0 5,5.63 15.42,15.42 0 0 0 8.57,2.18 24.59,24.59 0 0 0 12.93,-3.53 41,41 0 0 0 10.08,-8.4 v -18.64 h -21.4 q -8.24,0 -12.52,4.78 a 16.28,16.28 0 0 0 -4.28,11.18 16.1,16.1 0 0 0 1.62,6.8 z"
       id="path22"
       inkscape:connector-curvature="0"
       style="fill:#ffffff" />
    <path
       class="cls-3"
       d="m 316.31,84.49 a 31.88,31.88 0 0 1 8.14,-3.78 78.28,78.28 0 0 1 10.17,-2.52 51.44,51.44 0 0 1 8.57,-0.92 36.9,36.9 0 0 1 16.54,3.52 27.64,27.64 0 0 1 11.18,9.75 25.7,25.7 0 0 1 4,14.28 v 56.11 h -10.05 l -1.68,-8.23 A 37.41,37.41 0 0 1 352.51,159.75 31.64,31.64 0 0 1 339,163 q -14.3,0 -21.17,-7.23 a 25,25 0 0 1 -6.89,-18 q 0,-11.92 8.23,-18.4 8.23,-6.48 21.34,-6.47 h 21 v -4.53 q 0,-8.4 -4.12,-13.95 -4.12,-5.55 -13.86,-5.54 a 42,42 0 0 0 -13.35,1.85 q -5.48,1.85 -10,3.69 z m 8.69,60.06 a 13.27,13.27 0 0 0 5,5.63 15.42,15.42 0 0 0 8.57,2.18 24.6,24.6 0 0 0 12.94,-3.53 41,41 0 0 0 10.08,-8.4 v -18.64 h -21.43 q -8.24,0 -12.51,4.78 a 16.24,16.24 0 0 0 -4.29,11.18 16,16 0 0 0 1.64,6.8 z"
       id="path24"
       inkscape:connector-curvature="0"
       style="fill:#ffffff" />
    <path
       class="cls-3"
       d="m 395.1,146.82 c 2.23,1 4.56,1.93 7,2.77 a 55.06,55.06 0 0 0 7.47,2 40.49,40.49 0 0 0 7.73,0.75 34.27,34.27 0 0 0 10.5,-1.43 15.58,15.58 0 0 0 7,-4.2 9.29,9.29 0 0 0 2.52,-6.46 9.15,9.15 0 0 0 -2.77,-6.56 26.73,26.73 0 0 0 -7.31,-5.12 77.92,77.92 0 0 0 -10.08,-4.12 95.24,95.24 0 0 1 -12.51,-5.29 33.2,33.2 0 0 1 -10.17,-7.72 16.23,16.23 0 0 1 -4,-11 q 0,-10.92 8.23,-17 8.23,-6.08 22.18,-6.13 a 45.33,45.33 0 0 1 8.32,0.92 73.44,73.44 0 0 1 9.49,2.52 29.77,29.77 0 0 1 7.73,3.78 l -4.2,9.24 A 83,83 0 0 0 432.99,89.91 36.79,36.79 0 0 0 420.63,88 q -7.56,0 -12.35,3.36 -4.79,3.36 -4.78,8.64 0.17,4.53 5.54,7.81 a 66.16,66.16 0 0 0 13.44,6 70.56,70.56 0 0 1 12.94,5.71 36.66,36.66 0 0 1 10.24,8.4 17.63,17.63 0 0 1 4,11.6 q 0,11.08 -8.32,17.38 -8.32,6.3 -24.28,6.3 a 51.18,51.18 0 0 1 -8.31,-0.84 68.75,68.75 0 0 1 -9.66,-2.35 33.55,33.55 0 0 1 -8.07,-3.69 z"
       id="path26"
       inkscape:connector-curvature="0"
       style="fill:#ffffff" />
    <path
       class="cls-3"
       d="m 474.39,122.29 a 44.52,44.52 0 0 0 3.44,15.29 23.07,23.07 0 0 0 9.17,10.58 q 6.21,3.87 16.3,3.87 a 39.67,39.67 0 0 0 12.77,-1.94 95.18,95.18 0 0 0 12.08,-5.09 l 4.37,9.74 a 88.31,88.31 0 0 1 -8.32,4.12 50.48,50.48 0 0 1 -9.57,3 53.49,53.49 0 0 1 -11.17,1.1 q -14.29,0 -23.78,-5.38 a 33.9,33.9 0 0 1 -14.19,-15.12 51.12,51.12 0 0 1 -4.71,-22.51 52.09,52.09 0 0 1 4.46,-22.18 34.89,34.89 0 0 1 12.93,-15 q 8.49,-5.46 20.58,-5.46 12.27,0 19.91,5.88 a 34.17,34.17 0 0 1 11.26,15.79 64.6,64.6 0 0 1 3.61,22.17 v 1.18 z m 46,-9.07 a 42.92,42.92 0 0 0 -3.36,-12.94 20.25,20.25 0 0 0 -7.14,-8.65 20.49,20.49 0 0 0 -11.67,-3.11 22.49,22.49 0 0 0 -12.18,3.11 21.09,21.09 0 0 0 -7.73,8.65 38.46,38.46 0 0 0 -3.61,12.94 z"
       id="path28"
       inkscape:connector-curvature="0"
       style="fill:#ffffff" />
    <path
       class="cls-3"
       d="M 571,160.43 540.75,82 l 11.76,-5 24.7,65.52 23.35,-63 h 13.27 l -35.78,98.28 a 27.59,27.59 0 0 1 -5.63,9.16 34.24,34.24 0 0 1 -8.82,6.88 42,42 0 0 1 -10.92,4.12 l -4,-9.58 c 2.68,-1.23 5.15,-2.43 7.39,-3.61 a 23.9,23.9 0 0 0 5.88,-4.28 16.74,16.74 0 0 0 3.86,-6.22 z"
       id="path30"
       inkscape:connector-curvature="0"
       style="fill:#ffffff" />
    <path
       class="cls-3"
       d="m 629.12,84.49 a 31.88,31.88 0 0 1 8.14,-3.78 78.69,78.69 0 0 1 10.17,-2.52 51.44,51.44 0 0 1 8.57,-0.92 36.9,36.9 0 0 1 16.54,3.52 27.64,27.64 0 0 1 11.18,9.75 25.7,25.7 0 0 1 4,14.28 v 56.11 H 677.67 L 676,152.7 a 37.27,37.27 0 0 1 -10.67,7.05 31.64,31.64 0 0 1 -13.53,3.25 q -14.28,0 -21.17,-7.23 a 25,25 0 0 1 -6.89,-18 q 0,-11.92 8.23,-18.4 8.23,-6.48 21.34,-6.47 h 21 v -4.53 q 0,-8.4 -4.12,-13.95 -4.12,-5.55 -13.86,-5.54 A 42,42 0 0 0 643,90.71 q -5.47,1.85 -10,3.69 z m 8.65,60.06 a 13.27,13.27 0 0 0 5,5.63 15.42,15.42 0 0 0 8.57,2.18 24.6,24.6 0 0 0 12.94,-3.53 41,41 0 0 0 10.08,-8.4 V 121.79 H 653 q -8.24,0 -12.51,4.78 a 16.24,16.24 0 0 0 -4.29,11.18 16,16 0 0 0 1.57,6.8 z"
       id="path32"
       inkscape:connector-curvature="0"
       style="fill:#ffffff" />
    <path
       class="cls-3"
       d="m 243,181.83 5.76,14.83 -1.71,0.28 -1.68,-4.4 h -6.31 l -1.56,4.25 h -1.7 l 5.55,-15 z m -0.84,2.31 -2.62,7 h 5.33 z"
       id="path34"
       inkscape:connector-curvature="0"
       style="fill:#ffffff" />
    <path
       class="cls-3"
       d="m 259.53,196.79 v -6 l -4.95,-8.6 1.63,-0.7 4.2,7.59 4.24,-7.24 h 1.87 l -5.23,8.87 v 6.09 z"
       id="path36"
       inkscape:connector-curvature="0"
       style="fill:#ffffff" />
    <path
       class="cls-3"
       d="m 274.27,181.83 5.73,14.83 -1.71,0.28 -1.68,-4.4 h -6.31 l -1.56,4.25 h -1.7 l 5.55,-15 z m -0.84,2.31 -2.62,7 h 5.33 z"
       id="path38"
       inkscape:connector-curvature="0"
       style="fill:#ffffff" />
    <path
       class="cls-3"
       d="m 282,194.7 c 0.27,0.12 0.61,0.25 1,0.4 a 9.37,9.37 0 0 0 1.28,0.36 7.36,7.36 0 0 0 1.39,0.14 5.41,5.41 0 0 0 2,-0.31 2.5,2.5 0 0 0 1.2,-0.87 2.05,2.05 0 0 0 0.41,-1.24 2.17,2.17 0 0 0 -0.46,-1.38 4.41,4.41 0 0 0 -1.33,-1.07 18.86,18.86 0 0 0 -2.17,-1 16.73,16.73 0 0 1 -1.71,-0.89 6.33,6.33 0 0 1 -1.23,-1 3.93,3.93 0 0 1 -0.75,-1.18 3.8,3.8 0 0 1 -0.25,-1.41 3.22,3.22 0 0 1 0.58,-1.91 4.13,4.13 0 0 1 1.65,-1.35 6,6 0 0 1 2.54,-0.5 7.73,7.73 0 0 1 2.11,0.28 11,11 0 0 1 1.72,0.64 l -0.59,1.34 -0.83,-0.35 a 7.6,7.6 0 0 0 -1,-0.3 6.36,6.36 0 0 0 -1.31,-0.12 4,4 0 0 0 -2.3,0.6 1.87,1.87 0 0 0 -0.89,1.65 2.12,2.12 0 0 0 0.45,1.36 4.39,4.39 0 0 0 1.35,1.07 c 0.6,0.33 1.34,0.71 2.2,1.13 a 14.88,14.88 0 0 1 1.7,0.86 6.45,6.45 0 0 1 1.23,1 3.44,3.44 0 0 1 0.77,1.13 3.63,3.63 0 0 1 0.26,1.44 3.43,3.43 0 0 1 -0.62,2 4.17,4.17 0 0 1 -1.81,1.39 7.19,7.19 0 0 1 -2.87,0.51 6.75,6.75 0 0 1 -1,-0.09 c -0.39,-0.06 -0.78,-0.13 -1.18,-0.22 a 8.21,8.21 0 0 1 -1.08,-0.32 4.15,4.15 0 0 1 -0.79,-0.39 z"
       id="path40"
       inkscape:connector-curvature="0"
       style="fill:#ffffff" />
    <path
       class="cls-3"
       d="M 302.56,196.79 V 190 h -7 v 6.84 h -1.76 v -15 l 1.72,-0.11 v 6.84 h 7 v -6.73 h 1.74 v 15 z"
       id="path42"
       inkscape:connector-curvature="0"
       style="fill:#ffffff" />
    <path
       class="cls-3"
       d="m 323.83,183.22 h -5.15 v 13.57 h -1.76 v -13.57 h -5 v -1.39 h 11.72 z"
       id="path44"
       inkscape:connector-curvature="0"
       style="fill:#ffffff" />
    <path
       class="cls-3"
       d="m 326.67,191.73 a 5.82,5.82 0 0 0 0.45,2 3.07,3.07 0 0 0 1.2,1.39 4,4 0 0 0 2.14,0.5 5.18,5.18 0 0 0 1.67,-0.25 12.6,12.6 0 0 0 1.58,-0.67 l 0.57,1.28 a 9.21,9.21 0 0 1 -1.09,0.53 5.9,5.9 0 0 1 -1.25,0.4 6.76,6.76 0 0 1 -1.46,0.14 6.26,6.26 0 0 1 -3.12,-0.7 4.56,4.56 0 0 1 -1.86,-2 7.49,7.49 0 0 1 0,-5.85 4.61,4.61 0 0 1 1.7,-2 4.82,4.82 0 0 1 2.69,-0.72 4.19,4.19 0 0 1 2.61,0.77 4.47,4.47 0 0 1 1.47,2.07 8.38,8.38 0 0 1 0.48,2.91 v 0.15 z m 6,-1.19 a 5.5,5.5 0 0 0 -0.44,-1.69 2.65,2.65 0 0 0 -0.94,-1.14 2.68,2.68 0 0 0 -1.53,-0.4 2.93,2.93 0 0 0 -1.59,0.4 2.8,2.8 0 0 0 -1,1.14 5.23,5.23 0 0 0 -0.48,1.69 z"
       id="path46"
       inkscape:connector-curvature="0"
       style="fill:#ffffff" />
    <path
       class="cls-3"
       d="m 344.62,196.11 a 5,5 0 0 1 -1.11,0.5 10.29,10.29 0 0 1 -1.29,0.35 6,6 0 0 1 -1.1,0.12 5.11,5.11 0 0 1 -2.76,-0.72 4.69,4.69 0 0 1 -1.77,-2 6.7,6.7 0 0 1 -0.61,-3 6.49,6.49 0 0 1 0.65,-2.9 4.66,4.66 0 0 1 1.81,-2 5.28,5.28 0 0 1 2.8,-0.72 6,6 0 0 1 1.07,0.13 8.78,8.78 0 0 1 1.29,0.34 4.25,4.25 0 0 1 1.09,0.52 l -0.53,1.21 c -0.41,-0.17 -0.83,-0.34 -1.28,-0.49 a 5,5 0 0 0 -1.69,-0.23 3.09,3.09 0 0 0 -1.85,0.55 3.49,3.49 0 0 0 -1.17,1.47 5.14,5.14 0 0 0 -0.43,2.07 5.79,5.79 0 0 0 0.37,2.14 3.29,3.29 0 0 0 1.13,1.51 3.08,3.08 0 0 0 1.86,0.55 5.68,5.68 0 0 0 1.71,-0.21 9.77,9.77 0 0 0 1.26,-0.51 z"
       id="path48"
       inkscape:connector-curvature="0"
       style="fill:#ffffff" />
    <path
       class="cls-3"
       d="M 347,196.79 V 181.5 l 1.72,-0.24 v 15.53 z m 1.59,-9.15 a 6.17,6.17 0 0 1 2.61,-1.64 4.73,4.73 0 0 1 1.45,-0.24 3.39,3.39 0 0 1 1.91,0.5 2.86,2.86 0 0 1 1.08,1.34 4.9,4.9 0 0 1 0.36,1.94 v 7.22 h -1.74 v -7 a 3.58,3.58 0 0 0 -0.41,-1.8 1.58,1.58 0 0 0 -1.51,-0.7 3,3 0 0 0 -1.17,0.26 6.83,6.83 0 0 0 -1.27,0.69 8.19,8.19 0 0 0 -1.14,1 z"
       id="path50"
       inkscape:connector-curvature="0"
       style="fill:#ffffff" />
    <path
       class="cls-3"
       d="m 358.79,196.79 v -10.67 h 1.28 l 0.3,1.52 a 6.47,6.47 0 0 1 1.17,-0.95 6,6 0 0 1 1.46,-0.69 4.73,4.73 0 0 1 1.45,-0.24 3.33,3.33 0 0 1 1.9,0.5 2.88,2.88 0 0 1 1.09,1.34 4.9,4.9 0 0 1 0.35,1.94 v 7.22 H 366 v -7 a 3.58,3.58 0 0 0 -0.41,-1.8 1.58,1.58 0 0 0 -1.51,-0.7 3,3 0 0 0 -1.17,0.26 6.83,6.83 0 0 0 -1.27,0.69 8.19,8.19 0 0 0 -1.14,1 v 7.57 z"
       id="path52"
       inkscape:connector-curvature="0"
       style="fill:#ffffff" />
    <path
       class="cls-3"
       d="m 375,197.08 a 4.68,4.68 0 0 1 -4.48,-2.72 6.77,6.77 0 0 1 -0.6,-2.94 6.49,6.49 0 0 1 0.65,-2.88 4.79,4.79 0 0 1 1.8,-2 5.24,5.24 0 0 1 2.78,-0.73 5.14,5.14 0 0 1 2.75,0.71 4.59,4.59 0 0 1 1.76,2 6.57,6.57 0 0 1 0.62,3 6.23,6.23 0 0 1 -0.65,2.88 4.9,4.9 0 0 1 -1.82,2 5.29,5.29 0 0 1 -2.81,0.68 z m 0,-1.48 a 3.09,3.09 0 0 0 1.87,-0.55 3.44,3.44 0 0 0 1.18,-1.47 5.13,5.13 0 0 0 0.41,-2.07 5.62,5.62 0 0 0 -0.39,-2.16 3.33,3.33 0 0 0 -1.12,-1.49 3,3 0 0 0 -1.86,-0.55 3.09,3.09 0 0 0 -1.85,0.55 3.49,3.49 0 0 0 -1.17,1.47 5.31,5.31 0 0 0 -0.43,2.07 5.79,5.79 0 0 0 0.37,2.14 3.24,3.24 0 0 0 1.14,1.51 3,3 0 0 0 1.85,0.55 z"
       id="path54"
       inkscape:connector-curvature="0"
       style="fill:#ffffff" />
    <path
       class="cls-3"
       d="M 382.66,196.79 V 181.5 l 1.72,-0.24 v 15.53 z"
       id="path56"
       inkscape:connector-curvature="0"
       style="fill:#ffffff" />
    <path
       class="cls-3"
       d="m 391.9,197.08 a 4.68,4.68 0 0 1 -4.48,-2.72 6.77,6.77 0 0 1 -0.6,-2.94 6.49,6.49 0 0 1 0.65,-2.88 4.72,4.72 0 0 1 1.8,-2 5.24,5.24 0 0 1 2.78,-0.73 5.14,5.14 0 0 1 2.75,0.71 4.59,4.59 0 0 1 1.76,2 6.7,6.7 0 0 1 0.62,3 6.23,6.23 0 0 1 -0.65,2.88 4.9,4.9 0 0 1 -1.82,2 5.29,5.29 0 0 1 -2.81,0.68 z m 0,-1.48 a 3.09,3.09 0 0 0 1.87,-0.55 3.44,3.44 0 0 0 1.18,-1.47 5.13,5.13 0 0 0 0.41,-2.07 5.62,5.62 0 0 0 -0.39,-2.16 3.33,3.33 0 0 0 -1.12,-1.49 3,3 0 0 0 -1.86,-0.55 3.09,3.09 0 0 0 -1.85,0.55 3.49,3.49 0 0 0 -1.17,1.47 5.31,5.31 0 0 0 -0.43,2.07 5.79,5.79 0 0 0 0.37,2.14 3.29,3.29 0 0 0 1.13,1.51 3.08,3.08 0 0 0 1.9,0.55 z"
       id="path58"
       inkscape:connector-curvature="0"
       style="fill:#ffffff" />
    <path
       class="cls-3"
       d="m 407.37,195.27 a 5.09,5.09 0 0 1 -1.08,1 4.58,4.58 0 0 1 -1.28,0.62 4.3,4.3 0 0 1 -1.21,0.2 5.05,5.05 0 0 1 -2.75,-0.72 4.62,4.62 0 0 1 -1.74,-2 7,7 0 0 1 -0.59,-3 6.48,6.48 0 0 1 0.62,-2.9 4.69,4.69 0 0 1 1.77,-2 5.07,5.07 0 0 1 2.74,-0.72 4.1,4.1 0 0 1 1.23,0.22 5.67,5.67 0 0 1 1.26,0.62 4.33,4.33 0 0 1 1.05,1 l -0.53,1.18 a 6,6 0 0 0 -1.31,-1.09 3.41,3.41 0 0 0 -1.75,-0.4 2.94,2.94 0 0 0 -1.82,0.55 3.3,3.3 0 0 0 -1.13,1.46 5.43,5.43 0 0 0 -0.37,2.08 6.13,6.13 0 0 0 0.36,2.17 3.18,3.18 0 0 0 1.1,1.49 3,3 0 0 0 1.84,0.54 3.32,3.32 0 0 0 1.72,-0.42 4.88,4.88 0 0 0 1.32,-1.16 z m 0.7,2.66 a 3.63,3.63 0 0 1 -0.57,2 3.92,3.92 0 0 1 -1.65,1.39 5.91,5.91 0 0 1 -2.6,0.52 5.31,5.31 0 0 1 -0.81,-0.07 c -0.32,0 -0.67,-0.11 -1,-0.19 a 10.52,10.52 0 0 1 -1,-0.31 4,4 0 0 1 -0.85,-0.42 l 0.53,-1.25 c 0.44,0.2 0.9,0.39 1.37,0.56 a 5.21,5.21 0 0 0 1.76,0.25 3.83,3.83 0 0 0 2.23,-0.62 2.12,2.12 0 0 0 0.89,-1.87 v -10.4 l 0.7,-1.41 h 1.06 z"
       id="path60"
       inkscape:connector-curvature="0"
       style="fill:#ffffff" />
    <path
       class="cls-3"
       d="m 411.06,183.67 a 1.26,1.26 0 0 1 0,-1.7 1.15,1.15 0 0 1 0.84,-0.34 1.21,1.21 0 0 1 0.84,0.34 1.1,1.1 0 0 1 0.37,0.85 1.13,1.13 0 0 1 -0.36,0.85 1.22,1.22 0 0 1 -1.69,0 z m 0,13.12 v -10.67 h 1.76 v 10.67 z"
       id="path62"
       inkscape:connector-curvature="0"
       style="fill:#ffffff" />
    <path
       class="cls-3"
       d="m 416.8,191.73 a 6.06,6.06 0 0 0 0.45,2 3.07,3.07 0 0 0 1.2,1.39 4,4 0 0 0 2.14,0.5 5.18,5.18 0 0 0 1.67,-0.25 12,12 0 0 0 1.58,-0.67 l 0.58,1.28 a 11,11 0 0 1 -1.09,0.53 6.19,6.19 0 0 1 -1.26,0.4 6.7,6.7 0 0 1 -1.46,0.14 6.2,6.2 0 0 1 -3.11,-0.7 4.45,4.45 0 0 1 -1.86,-2 7.43,7.43 0 0 1 0,-5.85 4.61,4.61 0 0 1 1.7,-2 4.84,4.84 0 0 1 2.69,-0.72 4.19,4.19 0 0 1 2.61,0.77 4.47,4.47 0 0 1 1.47,2.07 8.38,8.38 0 0 1 0.48,2.91 v 0.15 z m 6,-1.19 a 5.5,5.5 0 0 0 -0.44,-1.69 2.46,2.46 0 0 0 -2.46,-1.54 3,3 0 0 0 -1.6,0.4 2.8,2.8 0 0 0 -1,1.14 5,5 0 0 0 -0.47,1.69 z"
       id="path64"
       inkscape:connector-curvature="0"
       style="fill:#ffffff" />
    <path
       class="cls-3"
       d="m 426.75,194.94 a 8.21,8.21 0 0 0 0.91,0.36 6.14,6.14 0 0 0 1,0.27 5.76,5.76 0 0 0 1,0.1 4.38,4.38 0 0 0 1.38,-0.19 2.06,2.06 0 0 0 0.91,-0.55 1.21,1.21 0 0 0 0.33,-0.85 1.19,1.19 0 0 0 -0.36,-0.85 3.8,3.8 0 0 0 -1,-0.68 11.7,11.7 0 0 0 -1.32,-0.53 13,13 0 0 1 -1.64,-0.7 4.29,4.29 0 0 1 -1.33,-1 2.12,2.12 0 0 1 -0.53,-1.44 2.62,2.62 0 0 1 1.08,-2.23 4.73,4.73 0 0 1 2.9,-0.81 6,6 0 0 1 1.09,0.13 9.07,9.07 0 0 1 1.24,0.33 3.59,3.59 0 0 1 1,0.49 l -0.55,1.21 a 13,13 0 0 0 -1.21,-0.51 4.87,4.87 0 0 0 -1.61,-0.24 2.79,2.79 0 0 0 -1.62,0.44 1.35,1.35 0 0 0 -0.62,1.12 1.27,1.27 0 0 0 0.72,1 9.49,9.49 0 0 0 1.76,0.78 9.16,9.16 0 0 1 1.7,0.75 4.57,4.57 0 0 1 1.34,1.1 2.3,2.3 0 0 1 0.53,1.51 2.72,2.72 0 0 1 -1.09,2.28 5.22,5.22 0 0 1 -3.18,0.83 7,7 0 0 1 -1.09,-0.11 11.19,11.19 0 0 1 -1.27,-0.31 3.93,3.93 0 0 1 -1,-0.49 z"
       id="path66"
       inkscape:connector-curvature="0"
       style="fill:#ffffff" />
    <path
       class="cls-3"
       d="m 451.14,183.66 a 8.15,8.15 0 0 0 -0.93,-0.34 6.71,6.71 0 0 0 -1,-0.23 9.31,9.31 0 0 0 -1.21,-0.09 4.59,4.59 0 0 0 -2.66,0.81 5.79,5.79 0 0 0 -1.87,2.25 7.49,7.49 0 0 0 -0.69,3.3 8.37,8.37 0 0 0 0.33,2.39 6.17,6.17 0 0 0 1,2 4.41,4.41 0 0 0 3.71,1.84 7.41,7.41 0 0 0 1.91,-0.2 9.06,9.06 0 0 0 1.39,-0.46 l 0.66,1.3 a 6.33,6.33 0 0 1 -1.14,0.44 11.76,11.76 0 0 1 -1.39,0.31 9.69,9.69 0 0 1 -1.37,0.11 6.94,6.94 0 0 1 -3,-0.62 6.13,6.13 0 0 1 -2.17,-1.68 7.3,7.3 0 0 1 -1.3,-2.45 10.16,10.16 0 0 1 -0.42,-2.95 9.64,9.64 0 0 1 0.48,-3.1 7.51,7.51 0 0 1 1.4,-2.51 6,6 0 0 1 2.22,-1.67 7,7 0 0 1 2.94,-0.6 9.27,9.27 0 0 1 1.15,0.09 11.74,11.74 0 0 1 1.39,0.27 4.49,4.49 0 0 1 1.19,0.5 z"
       id="path68"
       inkscape:connector-curvature="0"
       style="fill:#ffffff" />
    <path
       class="cls-3"
       d="m 458.12,197.08 a 4.84,4.84 0 0 1 -2.73,-0.72 4.79,4.79 0 0 1 -1.75,-2 6.77,6.77 0 0 1 -0.6,-2.94 6.49,6.49 0 0 1 0.65,-2.88 4.72,4.72 0 0 1 1.8,-2 5.21,5.21 0 0 1 2.78,-0.73 5.14,5.14 0 0 1 2.75,0.71 4.59,4.59 0 0 1 1.76,2 6.7,6.7 0 0 1 0.62,3 6.23,6.23 0 0 1 -0.65,2.88 4.86,4.86 0 0 1 -1.83,2 5.26,5.26 0 0 1 -2.8,0.68 z m 0,-1.48 a 3.09,3.09 0 0 0 1.87,-0.55 3.44,3.44 0 0 0 1.18,-1.47 5.13,5.13 0 0 0 0.41,-2.07 5.62,5.62 0 0 0 -0.39,-2.16 3.41,3.41 0 0 0 -1.12,-1.49 3,3 0 0 0 -1.86,-0.55 3.09,3.09 0 0 0 -1.85,0.55 3.49,3.49 0 0 0 -1.17,1.47 5.14,5.14 0 0 0 -0.43,2.07 5.79,5.79 0 0 0 0.37,2.14 3.29,3.29 0 0 0 1.13,1.51 3.08,3.08 0 0 0 1.9,0.55 z"
       id="path70"
       inkscape:connector-curvature="0"
       style="fill:#ffffff" />
    <path
       class="cls-3"
       d="m 465.6,196.79 v -10.67 h 1.28 l 0.3,1.52 a 6.76,6.76 0 0 1 1.16,-0.95 6,6 0 0 1 1.35,-0.66 4.11,4.11 0 0 1 1.32,-0.24 3.16,3.16 0 0 1 1.85,0.5 2.83,2.83 0 0 1 1,1.34 5.22,5.22 0 0 1 0.33,1.92 v 7.24 h -1.73 v -7 a 5,5 0 0 0 -0.16,-1.3 1.66,1.66 0 0 0 -0.53,-0.88 1.58,1.58 0 0 0 -1.08,-0.32 2.57,2.57 0 0 0 -1.07,0.26 7.38,7.38 0 0 0 -1.2,0.69 8.81,8.81 0 0 0 -1.14,1 v 7.57 z m 8.27,-9.15 a 6.4,6.4 0 0 1 1.16,-0.95 5.89,5.89 0 0 1 1.36,-0.66 4.21,4.21 0 0 1 1.33,-0.24 3.17,3.17 0 0 1 1.84,0.5 2.85,2.85 0 0 1 1,1.34 5.22,5.22 0 0 1 0.33,1.92 v 7.24 h -1.69 v -7 a 4.6,4.6 0 0 0 -0.17,-1.3 1.74,1.74 0 0 0 -0.54,-0.88 1.54,1.54 0 0 0 -1.06,-0.32 2.69,2.69 0 0 0 -1.1,0.26 7.23,7.23 0 0 0 -1.18,0.69 9.44,9.44 0 0 0 -1.13,1 z"
       id="path72"
       inkscape:connector-curvature="0"
       style="fill:#ffffff" />
    <path
       class="cls-3"
       d="m 483.84,201.61 v -15.49 h 1 l 0.68,1.39 v 13.86 z m 0.66,-14 a 4.45,4.45 0 0 1 1.08,-1 4.78,4.78 0 0 1 1.27,-0.61 4.3,4.3 0 0 1 1.21,-0.2 5.05,5.05 0 0 1 2.75,0.72 4.65,4.65 0 0 1 1.74,2 6.83,6.83 0 0 1 0.59,3 6.53,6.53 0 0 1 -0.62,2.89 4.86,4.86 0 0 1 -1.77,2 5.08,5.08 0 0 1 -2.75,0.72 4.05,4.05 0 0 1 -1.23,-0.22 5.82,5.82 0 0 1 -1.25,-0.62 4.83,4.83 0 0 1 -1.07,-1 l 0.53,-1.18 a 5.8,5.8 0 0 0 1.32,1.09 3.45,3.45 0 0 0 1.74,0.4 3,3 0 0 0 1.84,-0.55 3.37,3.37 0 0 0 1.11,-1.47 5.49,5.49 0 0 0 0.37,-2.07 6.35,6.35 0 0 0 -0.35,-2.18 3.18,3.18 0 0 0 -1.09,-1.48 3,3 0 0 0 -1.84,-0.54 3.25,3.25 0 0 0 -1.72,0.42 5.06,5.06 0 0 0 -1.33,1.16 z"
       id="path74"
       inkscape:connector-curvature="0"
       style="fill:#ffffff" />
    <path
       class="cls-3"
       d="m 495.74,186.78 a 3.87,3.87 0 0 1 1.06,-0.49 10.08,10.08 0 0 1 1.34,-0.33 6.75,6.75 0 0 1 1.12,-0.13 4.77,4.77 0 0 1 2.16,0.47 3.52,3.52 0 0 1 1.47,1.27 3.4,3.4 0 0 1 0.53,1.87 v 7.35 h -1.32 l -0.22,-1.08 a 5,5 0 0 1 -1.4,0.93 4.3,4.3 0 0 1 -1.77,0.41 3.66,3.66 0 0 1 -2.77,-0.94 3.26,3.26 0 0 1 -0.91,-2.36 2.89,2.89 0 0 1 1.08,-2.41 4.42,4.42 0 0 1 2.8,-0.84 h 2.75 v -0.6 a 3,3 0 0 0 -0.54,-1.82 2.11,2.11 0 0 0 -1.82,-0.73 5.56,5.56 0 0 0 -1.75,0.24 c -0.47,0.17 -0.91,0.33 -1.31,0.49 z m 1.13,7.87 a 1.75,1.75 0 0 0 0.65,0.73 2,2 0 0 0 1.12,0.29 3.33,3.33 0 0 0 1.7,-0.46 5.68,5.68 0 0 0 1.32,-1.1 v -2.45 h -2.8 a 2.09,2.09 0 0 0 -1.64,0.63 2.13,2.13 0 0 0 -0.35,2.36 z"
       id="path76"
       inkscape:connector-curvature="0"
       style="fill:#ffffff" />
    <path
       class="cls-3"
       d="m 506.19,196.79 v -10.67 h 1.27 l 0.31,1.52 a 6.47,6.47 0 0 1 1.17,-0.95 6,6 0 0 1 1.41,-0.66 4.68,4.68 0 0 1 1.45,-0.24 3.33,3.33 0 0 1 1.9,0.5 2.94,2.94 0 0 1 1.09,1.34 5.09,5.09 0 0 1 0.35,1.94 v 7.22 h -1.74 v -7 a 3.58,3.58 0 0 0 -0.4,-1.8 1.59,1.59 0 0 0 -1.51,-0.7 3.12,3.12 0 0 0 -1.18,0.26 7.09,7.09 0 0 0 -1.26,0.69 8.89,8.89 0 0 0 -1.15,1 v 7.57 z"
       id="path78"
       inkscape:connector-curvature="0"
       style="fill:#ffffff" />
    <path
       class="cls-3"
       d="m 520.73,196.72 -4,-10.27 1.54,-0.66 3.23,8.58 3.06,-8.25 h 1.74 L 521.65,199 a 3.55,3.55 0 0 1 -0.73,1.2 4.46,4.46 0 0 1 -1.16,0.9 5.71,5.71 0 0 1 -1.43,0.54 l -0.53,-1.25 c 0.36,-0.17 0.68,-0.32 1,-0.48 a 2.93,2.93 0 0 0 0.77,-0.56 2.24,2.24 0 0 0 0.51,-0.81 z"
       id="path80"
       inkscape:connector-curvature="0"
       style="fill:#ffffff" />
  </g>
</svg>
