<svg xmlns="http://www.w3.org/2000/svg" viewBox="0 0 733 248"><defs><style>.cls-1{fill:#fff;}</style></defs><g id="Isolation_Mode" data-name="Isolation Mode"><rect class="cls-1" x="27.43" y="87.48" width="112.56" height="13.03" rx="6.51" transform="translate(177.71 10.29) rotate(90)"/><rect class="cls-1" x="18.31" y="132.56" width="76.6" height="13.03" rx="6.51" transform="translate(195.69 82.46) rotate(90)"/><rect class="cls-1" x="-2.01" y="156.53" width="63.06" height="13.03" rx="6.51" transform="translate(192.56 133.53) rotate(90)"/><rect class="cls-1" x="60.78" y="180.76" width="45.86" height="13.03" rx="6.51" transform="translate(270.99 103.57) rotate(90)"/><rect class="cls-1" x="53.76" y="87.48" width="112.56" height="13.03" rx="6.51" transform="translate(204.04 -16.04) rotate(90)"/><rect class="cls-1" x="130.62" y="100.77" width="13.03" height="76.6" rx="6.51" transform="translate(274.27 278.15) rotate(-180)"/><rect class="cls-1" x="157.72" y="131.52" width="13.03" height="63.06" rx="6.51" transform="translate(328.47 326.09) rotate(180)"/><rect class="cls-1" x="103.52" y="164.35" width="13.03" height="45.86" rx="6.51" transform="translate(220.08 374.55) rotate(180)"/><path class="cls-1" d="M234.32,84.49a32.12,32.12,0,0,1,8.15-3.78,78.13,78.13,0,0,1,10.16-2.52,51.65,51.65,0,0,1,8.57-.92,37,37,0,0,1,16.55,3.52,27.61,27.61,0,0,1,11.17,9.75,25.63,25.63,0,0,1,4,14.28v56.11H282.88l-1.68-8.23a37.41,37.41,0,0,1-10.67,7.05A31.65,31.65,0,0,1,257,163q-14.28,0-21.17-7.23a25,25,0,0,1-6.88-18q0-11.92,8.23-18.4t21.33-6.47h21v-4.53q0-8.4-4.11-13.95t-13.86-5.54a42.05,42.05,0,0,0-13.36,1.85q-5.46,1.85-10,3.69ZM243,144.55a13.36,13.36,0,0,0,5,5.63,15.42,15.42,0,0,0,8.57,2.18,24.59,24.59,0,0,0,12.93-3.53,41,41,0,0,0,10.08-8.4V121.79H258.18q-8.24,0-12.52,4.78a16.28,16.28,0,0,0-4.28,11.18A16.1,16.1,0,0,0,243,144.55Z"/><path class="cls-1" d="M316.31,84.49a31.88,31.88,0,0,1,8.14-3.78,78.28,78.28,0,0,1,10.17-2.52,51.44,51.44,0,0,1,8.57-.92,36.9,36.9,0,0,1,16.54,3.52,27.64,27.64,0,0,1,11.18,9.75,25.7,25.7,0,0,1,4,14.28v56.11H364.86l-1.68-8.23a37.41,37.41,0,0,1-10.67,7.05A31.64,31.64,0,0,1,339,163q-14.3,0-21.17-7.23a25,25,0,0,1-6.89-18q0-11.92,8.23-18.4t21.34-6.47h21v-4.53q0-8.4-4.12-13.95t-13.86-5.54a42,42,0,0,0-13.35,1.85q-5.48,1.85-10,3.69ZM325,144.55a13.27,13.27,0,0,0,5,5.63,15.42,15.42,0,0,0,8.57,2.18,24.6,24.6,0,0,0,12.94-3.53,41,41,0,0,0,10.08-8.4V121.79H340.16q-8.24,0-12.51,4.78a16.24,16.24,0,0,0-4.29,11.18A16,16,0,0,0,325,144.55Z"/><path class="cls-1" d="M395.1,146.82c2.23,1,4.56,1.93,7,2.77a55.06,55.06,0,0,0,7.47,2,40.49,40.49,0,0,0,7.73.75,34.27,34.27,0,0,0,10.5-1.43,15.58,15.58,0,0,0,7-4.2,9.29,9.29,0,0,0,2.52-6.46,9.15,9.15,0,0,0-2.77-6.56,26.73,26.73,0,0,0-7.31-5.12,77.92,77.92,0,0,0-10.08-4.12,95.24,95.24,0,0,1-12.51-5.29,33.2,33.2,0,0,1-10.17-7.72,16.23,16.23,0,0,1-4-11q0-10.92,8.23-17t22.18-6.13a45.33,45.33,0,0,1,8.32.92,73.44,73.44,0,0,1,9.49,2.52,29.77,29.77,0,0,1,7.73,3.78l-4.2,9.24a83,83,0,0,0-9.24-3.86A36.79,36.79,0,0,0,420.63,88q-7.56,0-12.35,3.36T403.5,100q.17,4.53,5.54,7.81a66.16,66.16,0,0,0,13.44,6,70.56,70.56,0,0,1,12.94,5.71,36.66,36.66,0,0,1,10.24,8.4,17.63,17.63,0,0,1,4,11.6q0,11.08-8.32,17.38t-24.28,6.3a51.18,51.18,0,0,1-8.31-.84,68.75,68.75,0,0,1-9.66-2.35,33.55,33.55,0,0,1-8.07-3.69Z"/><path class="cls-1" d="M474.39,122.29a44.52,44.52,0,0,0,3.44,15.29A23.07,23.07,0,0,0,487,148.16q6.21,3.87,16.3,3.87a39.67,39.67,0,0,0,12.77-1.94A95.18,95.18,0,0,0,528.15,145l4.37,9.74a88.31,88.31,0,0,1-8.32,4.12,50.48,50.48,0,0,1-9.57,3,53.49,53.49,0,0,1-11.17,1.1q-14.29,0-23.78-5.38a33.9,33.9,0,0,1-14.19-15.12,51.12,51.12,0,0,1-4.71-22.51,52.09,52.09,0,0,1,4.46-22.18,34.89,34.89,0,0,1,12.93-15q8.49-5.46,20.58-5.46,12.27,0,19.91,5.88a34.17,34.17,0,0,1,11.26,15.79,64.6,64.6,0,0,1,3.61,22.17v1.18Zm46-9.07a42.92,42.92,0,0,0-3.36-12.94,20.25,20.25,0,0,0-7.14-8.65,20.49,20.49,0,0,0-11.67-3.11,22.49,22.49,0,0,0-12.18,3.11,21.09,21.09,0,0,0-7.73,8.65,38.46,38.46,0,0,0-3.61,12.94Z"/><path class="cls-1" d="M571,160.43,540.75,82l11.76-5,24.7,65.52,23.35-63h13.27l-35.78,98.28a27.59,27.59,0,0,1-5.63,9.16,34.24,34.24,0,0,1-8.82,6.88,42,42,0,0,1-10.92,4.12l-4-9.58c2.68-1.23,5.15-2.43,7.39-3.61a23.9,23.9,0,0,0,5.88-4.28,16.74,16.74,0,0,0,3.86-6.22Z"/><path class="cls-1" d="M629.12,84.49a31.88,31.88,0,0,1,8.14-3.78,78.69,78.69,0,0,1,10.17-2.52,51.44,51.44,0,0,1,8.57-.92,36.9,36.9,0,0,1,16.54,3.52,27.64,27.64,0,0,1,11.18,9.75,25.7,25.7,0,0,1,4,14.28v56.11H677.67L676,152.7a37.27,37.27,0,0,1-10.67,7.05A31.64,31.64,0,0,1,651.8,163q-14.28,0-21.17-7.23a25,25,0,0,1-6.89-18q0-11.92,8.23-18.4t21.34-6.47h21v-4.53q0-8.4-4.12-13.95t-13.86-5.54A42,42,0,0,0,643,90.71q-5.47,1.85-10,3.69Zm8.65,60.06a13.27,13.27,0,0,0,5,5.63,15.42,15.42,0,0,0,8.57,2.18,24.6,24.6,0,0,0,12.94-3.53,41,41,0,0,0,10.08-8.4V121.79H653q-8.24,0-12.51,4.78a16.24,16.24,0,0,0-4.29,11.18A16,16,0,0,0,637.77,144.55Z"/><path class="cls-1" d="M243,181.83l5.76,14.83-1.71.28-1.68-4.4h-6.31l-1.56,4.25h-1.7l5.55-15Zm-.84,2.31-2.62,7h5.33Z"/><path class="cls-1" d="M259.53,196.79v-6l-4.95-8.6,1.62-.7,4.21,7.59,4.24-7.24h1.87l-5.23,8.87,0,6.09Z"/><path class="cls-1" d="M274.27,181.83,280,196.66l-1.72.28-1.67-4.4h-6.31l-1.56,4.25h-1.7l5.55-15Zm-.84,2.31-2.62,7h5.33Z"/><path class="cls-1" d="M281.94,194.7l1,.4a9.37,9.37,0,0,0,1.28.36,7.36,7.36,0,0,0,1.39.14,5.41,5.41,0,0,0,2-.31,2.5,2.5,0,0,0,1.2-.87,2,2,0,0,0,.4-1.24,2.16,2.16,0,0,0-.45-1.38,4.41,4.41,0,0,0-1.33-1.07,18.32,18.32,0,0,0-2.18-1,17.61,17.61,0,0,1-1.7-.89,6.33,6.33,0,0,1-1.23-1,3.93,3.93,0,0,1-.75-1.18,3.8,3.8,0,0,1-.25-1.41,3.22,3.22,0,0,1,.58-1.91,4.13,4.13,0,0,1,1.65-1.35,6,6,0,0,1,2.54-.5,7.73,7.73,0,0,1,2.11.28,11,11,0,0,1,1.72.64l-.6,1.34-.82-.35a7.6,7.6,0,0,0-1-.3,6.36,6.36,0,0,0-1.31-.12,4,4,0,0,0-2.3.6,1.87,1.87,0,0,0-.89,1.65,2.12,2.12,0,0,0,.45,1.36,4.39,4.39,0,0,0,1.35,1.07c.6.33,1.34.71,2.2,1.13a14.88,14.88,0,0,1,1.7.86,6.45,6.45,0,0,1,1.23,1,3.44,3.44,0,0,1,.77,1.13,3.81,3.81,0,0,1,.26,1.44,3.43,3.43,0,0,1-.62,2,4.17,4.17,0,0,1-1.81,1.39,7.19,7.19,0,0,1-2.87.51,6.75,6.75,0,0,1-1-.09c-.39-.06-.79-.13-1.18-.22a8.21,8.21,0,0,1-1.08-.32,4.15,4.15,0,0,1-.79-.39Z"/><path class="cls-1" d="M302.56,196.79V190h-7v6.84H293.8v-15l1.72-.11v6.84h7v-6.73h1.74v15Z"/><path class="cls-1" d="M323.83,183.22h-5.15v13.57h-1.76V183.22h-5v-1.39h11.72Z"/><path class="cls-1" d="M326.67,191.73a5.6,5.6,0,0,0,.45,2,3.07,3.07,0,0,0,1.2,1.39,4,4,0,0,0,2.13.5,5.2,5.2,0,0,0,1.68-.25,13.26,13.26,0,0,0,1.58-.67l.57,1.28a10,10,0,0,1-1.09.53,6.09,6.09,0,0,1-1.25.4,6.76,6.76,0,0,1-1.46.14,6.26,6.26,0,0,1-3.12-.7,4.45,4.45,0,0,1-1.86-2,7.49,7.49,0,0,1,0-5.85,4.54,4.54,0,0,1,1.7-2,4.82,4.82,0,0,1,2.69-.72,4.19,4.19,0,0,1,2.61.77,4.54,4.54,0,0,1,1.47,2.07,8.38,8.38,0,0,1,.47,2.91v.15Zm6-1.19a5.8,5.8,0,0,0-.44-1.69,2.65,2.65,0,0,0-.94-1.14,2.68,2.68,0,0,0-1.53-.4,2.93,2.93,0,0,0-1.59.4,2.8,2.8,0,0,0-1,1.14,5.23,5.23,0,0,0-.48,1.69Z"/><path class="cls-1" d="M344.62,196.11a5.21,5.21,0,0,1-1.11.5,10.29,10.29,0,0,1-1.29.35,6,6,0,0,1-1.1.12,5.11,5.11,0,0,1-2.76-.72,4.69,4.69,0,0,1-1.77-2,6.7,6.7,0,0,1-.61-3,6.62,6.62,0,0,1,.64-2.9,4.74,4.74,0,0,1,1.82-2,5.27,5.27,0,0,1,2.79-.72,6,6,0,0,1,1.08.13,8.78,8.78,0,0,1,1.29.34,4.42,4.42,0,0,1,1.09.52l-.53,1.21c-.41-.17-.84-.34-1.28-.49a5,5,0,0,0-1.69-.23,3.09,3.09,0,0,0-1.85.55,3.49,3.49,0,0,0-1.17,1.47,5.14,5.14,0,0,0-.43,2.07,5.79,5.79,0,0,0,.37,2.14,3.29,3.29,0,0,0,1.13,1.51,3.08,3.08,0,0,0,1.86.55,5.72,5.72,0,0,0,1.71-.21,9.77,9.77,0,0,0,1.26-.51Z"/><path class="cls-1" d="M347,196.79V181.5l1.72-.24v15.53Zm1.59-9.15A6.17,6.17,0,0,1,351.2,186a4.73,4.73,0,0,1,1.45-.24,3.33,3.33,0,0,1,1.9.5,2.82,2.82,0,0,1,1.09,1.34,4.9,4.9,0,0,1,.36,1.94v7.22h-1.74v-7a3.58,3.58,0,0,0-.41-1.8,1.58,1.58,0,0,0-1.51-.7,3,3,0,0,0-1.17.26,6.83,6.83,0,0,0-1.27.69,8.19,8.19,0,0,0-1.14,1Z"/><path class="cls-1" d="M358.79,196.79V186.12h1.28l.3,1.52a6.47,6.47,0,0,1,1.17-.95A6,6,0,0,1,363,186a4.73,4.73,0,0,1,1.45-.24,3.33,3.33,0,0,1,1.9.5,2.88,2.88,0,0,1,1.09,1.34,4.9,4.9,0,0,1,.35,1.94v7.22H366v-7a3.58,3.58,0,0,0-.4-1.8,1.59,1.59,0,0,0-1.51-.7,3.12,3.12,0,0,0-1.18.26,7.09,7.09,0,0,0-1.26.69,8.89,8.89,0,0,0-1.15,1v7.57Z"/><path class="cls-1" d="M375,197.08a4.68,4.68,0,0,1-4.48-2.72,6.77,6.77,0,0,1-.6-2.94,6.49,6.49,0,0,1,.65-2.88,4.72,4.72,0,0,1,1.8-2,5.24,5.24,0,0,1,2.78-.73,5.14,5.14,0,0,1,2.75.71,4.59,4.59,0,0,1,1.76,2,6.7,6.7,0,0,1,.62,3,6.23,6.23,0,0,1-.65,2.88,4.86,4.86,0,0,1-1.83,2A5.26,5.26,0,0,1,375,197.08Zm0-1.48a3.09,3.09,0,0,0,1.87-.55,3.44,3.44,0,0,0,1.18-1.47,5.13,5.13,0,0,0,.41-2.07,5.62,5.62,0,0,0-.39-2.16,3.33,3.33,0,0,0-1.12-1.49,3,3,0,0,0-1.86-.55,3.09,3.09,0,0,0-1.85.55,3.49,3.49,0,0,0-1.17,1.47,5.14,5.14,0,0,0-.43,2.07,5.79,5.79,0,0,0,.37,2.14,3.29,3.29,0,0,0,1.13,1.51A3.08,3.08,0,0,0,375,195.6Z"/><path class="cls-1" d="M382.66,196.79V181.5l1.72-.24v15.53Z"/><path class="cls-1" d="M391.9,197.08a4.68,4.68,0,0,1-4.48-2.72,6.77,6.77,0,0,1-.6-2.94,6.49,6.49,0,0,1,.65-2.88,4.72,4.72,0,0,1,1.8-2,5.21,5.21,0,0,1,2.78-.73,5.14,5.14,0,0,1,2.75.71,4.59,4.59,0,0,1,1.76,2,6.7,6.7,0,0,1,.62,3,6.23,6.23,0,0,1-.65,2.88,4.86,4.86,0,0,1-1.83,2A5.26,5.26,0,0,1,391.9,197.08Zm0-1.48a3.09,3.09,0,0,0,1.87-.55,3.44,3.44,0,0,0,1.18-1.47,5.13,5.13,0,0,0,.41-2.07,5.62,5.62,0,0,0-.39-2.16,3.41,3.41,0,0,0-1.12-1.49,3,3,0,0,0-1.86-.55,3.09,3.09,0,0,0-1.85.55,3.49,3.49,0,0,0-1.17,1.47,5.14,5.14,0,0,0-.43,2.07,5.79,5.79,0,0,0,.37,2.14,3.29,3.29,0,0,0,1.13,1.51A3.08,3.08,0,0,0,391.94,195.6Z"/><path class="cls-1" d="M407.37,195.27a5.09,5.09,0,0,1-1.08,1,4.58,4.58,0,0,1-1.28.62,4.3,4.3,0,0,1-1.21.2,5.05,5.05,0,0,1-2.75-.72,4.62,4.62,0,0,1-1.74-2,7,7,0,0,1-.59-3,6.48,6.48,0,0,1,.61-2.9,4.78,4.78,0,0,1,1.78-2,5.05,5.05,0,0,1,2.73-.72,4.11,4.11,0,0,1,1.24.22,5.67,5.67,0,0,1,1.26.62,4.33,4.33,0,0,1,1.05,1l-.53,1.18a6,6,0,0,0-1.31-1.09,3.43,3.43,0,0,0-1.75-.4,2.94,2.94,0,0,0-1.82.55,3.3,3.3,0,0,0-1.13,1.46,5.43,5.43,0,0,0-.37,2.08,6.13,6.13,0,0,0,.36,2.17,3.18,3.18,0,0,0,1.1,1.49,3,3,0,0,0,1.84.54,3.32,3.32,0,0,0,1.72-.42,5.19,5.19,0,0,0,1.32-1.16Zm.7,2.66a3.63,3.63,0,0,1-.57,2,3.92,3.92,0,0,1-1.65,1.39,5.91,5.91,0,0,1-2.6.52,5.31,5.31,0,0,1-.81-.07c-.33,0-.67-.11-1-.19a10.32,10.32,0,0,1-1-.31,4,4,0,0,1-.85-.42l.53-1.25c.44.2.9.39,1.36.56a5.27,5.27,0,0,0,1.77.25,3.86,3.86,0,0,0,2.23-.62,2.12,2.12,0,0,0,.89-1.87v-10.4l.7-1.41h1.06Z"/><path class="cls-1" d="M411.06,183.67a1.26,1.26,0,0,1,0-1.7,1.15,1.15,0,0,1,.84-.34,1.21,1.21,0,0,1,.84.34,1.17,1.17,0,0,1,0,1.7,1.22,1.22,0,0,1-1.69,0Zm0,13.12V186.12h1.76v10.67Z"/><path class="cls-1" d="M416.8,191.73a6.06,6.06,0,0,0,.45,2,3.07,3.07,0,0,0,1.2,1.39,4,4,0,0,0,2.14.5,5.18,5.18,0,0,0,1.67-.25,12.6,12.6,0,0,0,1.58-.67l.57,1.28a9.86,9.86,0,0,1-1.08.53,6.19,6.19,0,0,1-1.26.4,6.7,6.7,0,0,1-1.46.14,6.2,6.2,0,0,1-3.11-.7,4.45,4.45,0,0,1-1.86-2,7.43,7.43,0,0,1,0-5.85,4.61,4.61,0,0,1,1.7-2,4.84,4.84,0,0,1,2.69-.72,4.19,4.19,0,0,1,2.61.77,4.47,4.47,0,0,1,1.47,2.07,8.38,8.38,0,0,1,.48,2.91v.15Zm6-1.19a5.5,5.5,0,0,0-.44-1.69,2.46,2.46,0,0,0-2.46-1.54,3,3,0,0,0-1.6.4,2.8,2.8,0,0,0-1,1.14,5,5,0,0,0-.47,1.69Z"/><path class="cls-1" d="M426.75,194.94a8.21,8.21,0,0,0,.91.36,6.14,6.14,0,0,0,1,.27,5.67,5.67,0,0,0,1,.1,4.28,4.28,0,0,0,1.37-.19,2,2,0,0,0,.92-.55,1.21,1.21,0,0,0,.33-.85,1.19,1.19,0,0,0-.36-.85,3.8,3.8,0,0,0-1-.68,11.7,11.7,0,0,0-1.32-.53,12.43,12.43,0,0,1-1.64-.7,4.29,4.29,0,0,1-1.33-1,2.12,2.12,0,0,1-.53-1.44,2.62,2.62,0,0,1,1.08-2.23,4.71,4.71,0,0,1,2.9-.81,6,6,0,0,1,1.09.13,9.07,9.07,0,0,1,1.24.33,3.73,3.73,0,0,1,1,.49l-.55,1.21a13,13,0,0,0-1.21-.51,4.87,4.87,0,0,0-1.61-.24,2.79,2.79,0,0,0-1.62.44,1.32,1.32,0,0,0-.62,1.12,1.27,1.27,0,0,0,.72,1,9.49,9.49,0,0,0,1.76.78,9.16,9.16,0,0,1,1.7.75,4.57,4.57,0,0,1,1.34,1.1,2.3,2.3,0,0,1,.53,1.51,2.72,2.72,0,0,1-1.09,2.28,5.22,5.22,0,0,1-3.18.83,7,7,0,0,1-1.09-.11,10.69,10.69,0,0,1-1.27-.31,3.93,3.93,0,0,1-1-.49Z"/><path class="cls-1" d="M451.14,183.66a8.15,8.15,0,0,0-.93-.34,6.71,6.71,0,0,0-1-.23A9.37,9.37,0,0,0,448,183a4.58,4.58,0,0,0-2.65.81,5.71,5.71,0,0,0-1.87,2.25,7.49,7.49,0,0,0-.69,3.3,8.37,8.37,0,0,0,.33,2.39,6.17,6.17,0,0,0,1,2,4.41,4.41,0,0,0,3.71,1.84,7.41,7.41,0,0,0,1.91-.2,9.44,9.44,0,0,0,1.39-.46l.66,1.3a6.33,6.33,0,0,1-1.14.44,12.23,12.23,0,0,1-1.39.31,9.69,9.69,0,0,1-1.37.11,6.94,6.94,0,0,1-3-.62,6.13,6.13,0,0,1-2.17-1.68,7.3,7.3,0,0,1-1.3-2.45,10.16,10.16,0,0,1-.43-2.95,9.64,9.64,0,0,1,.49-3.1,7.66,7.66,0,0,1,1.39-2.51,6.15,6.15,0,0,1,2.23-1.67,6.94,6.94,0,0,1,2.93-.6,9.28,9.28,0,0,1,1.16.09,11.74,11.74,0,0,1,1.39.27,4.49,4.49,0,0,1,1.19.5Z"/><path class="cls-1" d="M458.12,197.08a4.84,4.84,0,0,1-2.73-.72,4.79,4.79,0,0,1-1.75-2,6.77,6.77,0,0,1-.6-2.94,6.63,6.63,0,0,1,.64-2.88,4.75,4.75,0,0,1,1.81-2,5.21,5.21,0,0,1,2.78-.73,5.14,5.14,0,0,1,2.75.71,4.65,4.65,0,0,1,1.76,2,6.7,6.7,0,0,1,.62,3,6.23,6.23,0,0,1-.65,2.88,4.86,4.86,0,0,1-1.83,2A5.26,5.26,0,0,1,458.12,197.08Zm0-1.48a3.11,3.11,0,0,0,1.87-.55,3.51,3.51,0,0,0,1.18-1.47,5.13,5.13,0,0,0,.41-2.07,5.62,5.62,0,0,0-.39-2.16,3.41,3.41,0,0,0-1.12-1.49,3,3,0,0,0-1.86-.55,3.09,3.09,0,0,0-1.85.55,3.59,3.59,0,0,0-1.18,1.47,5.31,5.31,0,0,0-.42,2.07,5.79,5.79,0,0,0,.37,2.14,3.29,3.29,0,0,0,1.13,1.51A3.08,3.08,0,0,0,458.16,195.6Z"/><path class="cls-1" d="M465.6,196.79V186.12h1.27l.31,1.52a6.4,6.4,0,0,1,1.16-.95,6,6,0,0,1,1.35-.66,4.11,4.11,0,0,1,1.32-.24,3.16,3.16,0,0,1,1.85.5,2.83,2.83,0,0,1,1,1.34,5.22,5.22,0,0,1,.33,1.92v7.24h-1.74v-7a5,5,0,0,0-.15-1.3,1.66,1.66,0,0,0-.53-.88,1.58,1.58,0,0,0-1.08-.32,2.57,2.57,0,0,0-1.07.26,7.38,7.38,0,0,0-1.2.69,8.81,8.81,0,0,0-1.14,1v7.57Zm8.27-9.15a6.4,6.4,0,0,1,1.16-.95,5.89,5.89,0,0,1,1.36-.66,4.21,4.21,0,0,1,1.33-.24,3.17,3.17,0,0,1,1.84.5,2.85,2.85,0,0,1,1,1.34,5.22,5.22,0,0,1,.33,1.92v7.24h-1.74v-7a4.62,4.62,0,0,0-.16-1.3,1.74,1.74,0,0,0-.54-.88,1.54,1.54,0,0,0-1.06-.32,2.69,2.69,0,0,0-1.1.26,7.23,7.23,0,0,0-1.18.69,9.44,9.44,0,0,0-1.13,1Z"/><path class="cls-1" d="M483.84,201.61V186.12h1l.68,1.39v13.86Zm.66-14a4.24,4.24,0,0,1,1.07-1,4.84,4.84,0,0,1,1.28-.61,4.3,4.3,0,0,1,1.21-.2,5.05,5.05,0,0,1,2.75.72,4.65,4.65,0,0,1,1.74,2,7,7,0,0,1,.59,3,6.53,6.53,0,0,1-.62,2.89,4.81,4.81,0,0,1-1.78,2,5.05,5.05,0,0,1-2.75.72,4,4,0,0,1-1.22-.22,5.82,5.82,0,0,1-1.25-.62,4.83,4.83,0,0,1-1.07-1l.53-1.18a5.8,5.8,0,0,0,1.32,1.09,3.45,3.45,0,0,0,1.74.4,3,3,0,0,0,1.84-.55,3.37,3.37,0,0,0,1.11-1.47,5.49,5.49,0,0,0,.37-2.07,6.35,6.35,0,0,0-.35-2.18,3.18,3.18,0,0,0-1.09-1.48,3,3,0,0,0-1.84-.54,3.25,3.25,0,0,0-1.72.42,5.26,5.26,0,0,0-1.34,1.16Z"/><path class="cls-1" d="M495.74,186.78a3.87,3.87,0,0,1,1.06-.49,10.33,10.33,0,0,1,1.33-.33,7,7,0,0,1,1.13-.13,4.77,4.77,0,0,1,2.16.47,3.52,3.52,0,0,1,1.47,1.27,3.4,3.4,0,0,1,.53,1.87v7.35h-1.33l-.21-1.08a5,5,0,0,1-1.4.93,4.3,4.3,0,0,1-1.77.41,3.66,3.66,0,0,1-2.77-.94,3.26,3.26,0,0,1-.91-2.36,2.89,2.89,0,0,1,1.08-2.41,4.42,4.42,0,0,1,2.8-.84h2.75v-.6a3,3,0,0,0-.54-1.82,2.11,2.11,0,0,0-1.82-.73,5.56,5.56,0,0,0-1.75.24c-.47.17-.91.33-1.31.49Zm1.13,7.87a1.75,1.75,0,0,0,.65.73,2,2,0,0,0,1.12.29,3.27,3.27,0,0,0,1.69-.46,5.54,5.54,0,0,0,1.33-1.1v-2.45h-2.8a2.09,2.09,0,0,0-1.64.63,2.13,2.13,0,0,0-.35,2.36Z"/><path class="cls-1" d="M506.19,196.79V186.12h1.27l.31,1.52a6.47,6.47,0,0,1,1.17-.95,6.17,6.17,0,0,1,1.4-.66,4.79,4.79,0,0,1,1.46-.24,3.35,3.35,0,0,1,1.9.5,2.94,2.94,0,0,1,1.09,1.34,5.09,5.09,0,0,1,.35,1.94v7.22H513.4v-7a3.58,3.58,0,0,0-.4-1.8,1.6,1.6,0,0,0-1.51-.7,3.08,3.08,0,0,0-1.18.26,7.09,7.09,0,0,0-1.26.69,8.27,8.27,0,0,0-1.15,1v7.57Z"/><path class="cls-1" d="M520.73,196.72l-4-10.27,1.54-.66,3.23,8.58,3.06-8.25h1.74L521.65,199a3.55,3.55,0,0,1-.73,1.2,4.46,4.46,0,0,1-1.16.9,5.71,5.71,0,0,1-1.43.54l-.53-1.25c.36-.17.68-.32,1-.48a3.11,3.11,0,0,0,.77-.56,2.24,2.24,0,0,0,.51-.81Z"/></g></svg>