<svg xmlns="http://www.w3.org/2000/svg" xmlns:xlink="http://www.w3.org/1999/xlink" width="647" height="931" viewBox="0 0 647 931"><defs><clipPath id="a"><rect width="647" height="931" transform="translate(-28 1862)" fill="#fff"/></clipPath></defs><g transform="translate(28 -1862)" clip-path="url(#a)"><g transform="translate(1856.548 2825.865)" opacity="0.153"><rect width="576.269" height="66.698" rx="33.349" transform="matrix(-0.324, 0.946, -0.946, -0.324, -1685.867, -926.223)" fill="#06bee1"/><rect width="392.183" height="66.698" rx="33.349" transform="matrix(-0.324, 0.946, -0.946, -0.324, -1921.838, -665.887)" fill="#06bee1"/><rect width="322.817" height="66.698" rx="33.349" transform="matrix(-0.324, 0.946, -0.946, -0.324, -2104.138, -562.011)" fill="#06bee1"/><rect width="234.776" height="66.698" rx="33.349" transform="matrix(-0.324, 0.946, -0.946, -0.324, -1896.225, -312.997)" fill="#3dabf5"/><g transform="translate(-1808.443 -904.128)"><rect width="576.269" height="66.698" rx="33.349" transform="matrix(-0.324, 0.946, -0.946, -0.324, 250.074, 21.642)" fill="#06bee1"/><rect width="66.698" height="392.183" rx="33.349" transform="translate(149.299 742.971) rotate(-161.066)" fill="#06bee1"/><rect width="66.698" height="322.817" rx="33.349" transform="translate(251.958 871.263) rotate(-161.066)" fill="#06bee1"/></g><rect width="66.698" height="234.776" rx="33.349" transform="translate(-1844.906 -47.188) rotate(-161.066)" fill="#3dabf5"/></g></g></svg>