<svg xmlns="http://www.w3.org/2000/svg" xmlns:xlink="http://www.w3.org/1999/xlink" width="661" height="577" viewBox="0 0 661 577"><defs><clipPath id="a"><rect width="661" height="577" transform="translate(0 4902.301)" fill="#fff" stroke="#707070" stroke-width="1"/></clipPath></defs><g transform="translate(0 -4902.301)" clip-path="url(#a)"><g transform="translate(-308.668 4641.553)" opacity="0.111"><path d="M48.416,15.631,776.432-16.326C802.745-17.481,823.14.506,821.985,23.849h0c-1.155,23.343-23.423,43.2-49.736,44.357L44.233,100.162C17.92,101.317-2.476,83.331-1.32,59.988S22.1,16.786,48.416,15.631Z" transform="matrix(-0.324, 0.946, -0.946, -0.324, 756.467, 34.951)" fill="#108de2"/><path d="M48.55,9.618,513.565-10.794c26.314-1.155,46.709,16.832,45.554,40.174s-23.423,43.2-49.736,44.357L44.367,94.15C18.053,95.3-2.342,77.318-1.187,53.975h0C-.032,30.633,22.236,10.773,48.55,9.618Z" transform="matrix(-0.324, 0.946, -0.946, -0.324, 456.834, 410.412)" fill="#108de2"/><path d="M48.6,7.353,414.514-8.709c26.314-1.155,46.709,16.832,45.554,40.174h0c-1.155,23.343-23.423,43.2-49.736,44.357L44.417,91.884C18.1,93.039-2.291,75.053-1.136,51.71S22.286,8.508,48.6,7.353Z" transform="matrix(-0.324, 0.946, -0.946, -0.324, 227.586, 560.269)" fill="#108de2"/><path d="M48.664,4.477,288.795-6.063c26.314-1.155,46.709,16.832,45.554,40.174s-23.423,43.2-49.736,44.357L44.481,89.009C18.168,90.164-2.227,72.177-1.072,48.834S22.35,5.632,48.664,4.477Z" transform="matrix(-0.324, 0.946, -0.946, -0.324, 483.919, 920.394)" fill="#108de2"/><g transform="translate(569.726 63.426)"><path d="M48.416,15.631,776.432-16.326C802.745-17.481,823.14.506,821.985,23.849s-23.423,43.2-49.736,44.357L44.233,100.162C17.919,101.317-2.476,83.331-1.32,59.988S22.1,16.786,48.416,15.631Z" transform="matrix(-0.324, 0.946, -0.946, -0.324, 345.585, 34.951)" fill="#108de2"/><path d="M41.167.93h0c23.343,1.155,43.2,23.423,44.357,49.736l20.412,465.015C107.091,542,89.1,562.39,65.762,561.235S22.56,537.813,21.4,511.5L.993,46.484C-.162,20.17,17.824-.225,41.167.93Z" transform="translate(202.358 1074.544) rotate(-161.066)" fill="#108de2"/><path d="M41.167.93c23.343,1.155,43.2,23.423,44.357,49.736L101.586,416.58c1.155,26.314-16.832,46.709-40.174,45.554s-43.2-23.423-44.357-49.736L.993,46.484C-.162,20.17,17.824-.225,41.167.93Z" transform="translate(330.257 1260.593) rotate(-161.066)" fill="#108de2"/></g><path d="M41.167.93h0c23.343,1.155,43.2,23.423,44.357,49.736L96.065,290.8c1.155,26.314-16.832,46.709-40.174,45.554s-43.2-23.423-44.357-49.736L.993,46.484C-.162,20.17,17.824-.225,41.167.93Z" transform="translate(540.649 1303.248) rotate(-161.066)" fill="#108de2"/></g></g></svg>