<svg xmlns="http://www.w3.org/2000/svg" xmlns:xlink="http://www.w3.org/1999/xlink" width="601.656" height="634.001" viewBox="0 0 601.656 634.001"><defs><clipPath id="a"><rect width="601.656" height="634.001" transform="translate(-249 1831)" fill="#fff"/></clipPath></defs><g transform="translate(249 -1831)" clip-path="url(#a)"><g transform="translate(-206.881 1837.428)" opacity="0.153"><rect width="376.939" height="43.627" rx="21.814" transform="matrix(-0.324, 0.946, -0.946, -0.324, 383.374, 14.156)" fill="#96ed45"/><rect width="256.528" height="43.627" rx="21.814" transform="matrix(-0.324, 0.946, -0.946, -0.324, 229.024, 184.443)" fill="#96ed45"/><rect width="211.156" height="43.627" rx="21.814" transform="matrix(-0.324, 0.946, -0.946, -0.324, 109.781, 252.388)" fill="#96ed45"/><rect width="153.568" height="43.627" rx="21.814" transform="matrix(-0.324, 0.946, -0.946, -0.324, 245.778, 415.268)" fill="#3dabf5"/><g transform="translate(303.197 28.608)"><rect width="376.939" height="43.627" rx="21.814" transform="matrix(-0.324, 0.946, -0.946, -0.324, 163.574, 14.156)" fill="#96ed45"/><rect width="43.627" height="256.528" rx="21.814" transform="translate(97.657 485.979) rotate(-161.066)" fill="#96ed45"/><rect width="43.627" height="211.156" rx="21.814" transform="translate(164.806 569.896) rotate(-161.066)" fill="#96ed45"/></g><rect width="43.627" height="153.568" rx="21.814" transform="translate(279.346 589.135) rotate(-161.066)" fill="#3dabf5"/></g></g></svg>