<svg xmlns="http://www.w3.org/2000/svg" xmlns:xlink="http://www.w3.org/1999/xlink" width="451" height="649" viewBox="0 0 451 649"><defs><style>.a{fill:#108de2;}.b{opacity:0.09;clip-path:url(#a);}</style><clipPath id="a"><rect class="a" width="451" height="649" transform="translate(-28 1861.662)"/></clipPath></defs><g class="b" transform="translate(28 -1861.662)"><g transform="translate(-297.934 1873.148)"><rect class="a" width="500.225" height="57.896" rx="28.948" transform="matrix(-0.324, 0.946, -0.946, -0.324, 508.764, 18.786)"/><rect class="a" width="340.431" height="57.896" rx="28.948" transform="matrix(-0.324, 0.946, -0.946, -0.324, 303.932, 244.768)"/><rect class="a" width="280.219" height="57.896" rx="28.948" transform="matrix(-0.324, 0.946, -0.946, -0.324, 145.688, 334.937)"/><rect class="a" width="203.795" height="57.896" rx="28.948" transform="matrix(-0.324, 0.946, -0.946, -0.324, 326.165, 551.091)"/><g transform="translate(402.363 37.965)"><rect class="a" width="500.225" height="57.896" rx="28.948" transform="matrix(-0.324, 0.946, -0.946, -0.324, 217.074, 18.786)"/><rect class="a" width="57.896" height="340.431" rx="28.948" transform="translate(129.598 644.93) rotate(-161.066)"/><rect class="a" width="57.896" height="280.219" rx="28.948" transform="translate(218.71 756.293) rotate(-161.066)"/></g><rect class="a" width="57.896" height="203.795" rx="28.948" transform="translate(370.712 781.825) rotate(-161.066)"/></g></g></svg>